<?xml version="1.0" encoding="UTF-8" standalone="no"?>
<!-- Created with Inkscape (http://www.inkscape.org/) -->

<svg
   xmlns:dc="http://purl.org/dc/elements/1.1/"
   xmlns:cc="http://creativecommons.org/ns#"
   xmlns:rdf="http://www.w3.org/1999/02/22-rdf-syntax-ns#"
   xmlns:svg="http://www.w3.org/2000/svg"
   xmlns="http://www.w3.org/2000/svg"
   xmlns:sodipodi="http://sodipodi.sourceforge.net/DTD/sodipodi-0.dtd"
   xmlns:inkscape="http://www.inkscape.org/namespaces/inkscape"
   width="210mm"
   height="297mm"
   viewBox="0 0 744.09448819 1052.3622047"
   id="svg2"
   version="1.1"
   inkscape:version="0.91 r13725"
   sodipodi:docname="donut.svg">
  <defs
     id="defs4" />
  <sodipodi:namedview
     id="base"
     pagecolor="#ffffff"
     bordercolor="#666666"
     borderopacity="1.0"
     inkscape:pageopacity="0.0"
     inkscape:pageshadow="2"
     inkscape:zoom="0.7071068"
     inkscape:cx="313.26517"
     inkscape:cy="724.51217"
     inkscape:document-units="px"
     inkscape:current-layer="layer1"
     showgrid="false"
     inkscape:window-width="1440"
     inkscape:window-height="775"
     inkscape:window-x="0"
     inkscape:window-y="1"
     inkscape:window-maximized="1" />
  <metadata
     id="metadata7">
    <rdf:RDF>
      <cc:Work
         rdf:about="">
        <dc:format>image/svg+xml</dc:format>
        <dc:type
           rdf:resource="http://purl.org/dc/dcmitype/StillImage" />
        <dc:title />
      </cc:Work>
    </rdf:RDF>
  </metadata>
  <g
     inkscape:label="Layer 1"
     inkscape:groupmode="layer"
     id="layer1">
    <g
       id="g4420"
       transform="matrix(0.82104408,0,0,0.82104408,120.49675,-42.003295)"
       inkscape:export-xdpi="90"
       inkscape:export-ydpi="90">
      <path
         id="path4142"
         d="M 309.5,111.7207 A 249.1409,249.1409 0 0 0 60.359375,360.86133 249.1409,249.1409 0 0 0 309.5,610.00391 249.1409,249.1409 0 0 0 558.64062,360.86133 249.1409,249.1409 0 0 0 518.6582,225.94727 a 35.182619,26.142794 0 0 1 -12.74609,-6.02344 35.182619,26.142794 0 0 1 -9.66016,-23.32617 70.016894,52.026746 0 0 1 -82.95507,-8.88672 70.016894,52.026746 0 0 1 -13.6504,-59.10156 249.1409,249.1409 0 0 0 -8.75195,-2.90821 35.182619,26.142794 0 0 1 -19.63867,-6 A 249.1409,249.1409 0 0 0 309.5,111.7207 Z m 0,161.94141 A 87.19931,87.19931 0 0 1 396.69922,360.86133 87.19931,87.19931 0 0 1 309.5,448.06055 87.19931,87.19931 0 0 1 222.30078,360.86133 87.19931,87.19931 0 0 1 309.5,273.66211 Z"
         style="opacity:0.81600001;fill:#d38d5f;fill-rule:evenodd;stroke:#000000;stroke-width:1.71821308px;stroke-linecap:butt;stroke-linejoin:miter;stroke-opacity:1"
         inkscape:connector-curvature="0" />
      <circle
         style="opacity:0.43800001;fill:#ff0000;fill-rule:evenodd;stroke:#000000;stroke-width:0.00343643px;stroke-linecap:butt;stroke-linejoin:miter;stroke-opacity:1"
         id="circle4144"
         cx="135"
         cy="600.36218"
         r="0.49828178" />
      <path
         id="path4193"
         d="m 307.60547,101.79492 c -1.09732,0.005 -2.19366,0.0168 -3.29102,0.0273 -88.22616,1.39747 -174.27528,51.22781 -218.179684,127.97656 -21.649969,36.76481 -33.683127,78.9818 -35.386719,121.5625 -0.17038,34.28962 0.564734,82.64297 26.011719,82.14453 46.243634,-0.90579 -1.101323,-93.24023 59.052734,-93.24024 57.93534,0 26.54409,103.22657 62.09375,103.22657 37.85773,0 31.24671,-48.96467 35.12891,-92.13086 3.4752,-26.07871 19.93365,-50.54237 44.7539,-60.79492 10.73318,-4.79528 22.19622,-7.07718 33.93946,-6.92969 37.15631,0.16775 70.11789,20.3148 74.73242,56.41016 0,38.27444 -3.5142,97.21484 36.89258,97.21484 48.05671,0 19.81943,-129.22461 53.57421,-129.22461 46.72782,0 3.38706,151.41603 62.93165,151.41601 35.56655,0 28.4082,-61.40502 28.4082,-119.40624 -1.51531,-39.2937 -12.02568,-73.60029 -30.48438,-104.95113 a 28.076319,37.981092 76.010641 0 1 -46.19726,-1.28711 28.076319,37.981092 76.010641 0 1 -7.875,-25.02343 55.874653,75.586131 76.01064 0 1 -87.22266,-4.90625 55.874653,75.586131 76.01064 0 1 -5.50781,-68.07032 28.076319,37.981092 76.010641 0 1 -34.47656,-5.63086 28.076319,37.981092 76.010641 0 1 -7.76172,-25.40234 c -12.50426,-1.94043 -25.15741,-2.95844 -37.84375,-2.9668 -1.09739,-0.0159 -2.19565,-0.0185 -3.29297,-0.0137 z"
         style="opacity:1;fill:#502d16;fill-opacity:1;fill-rule:evenodd;stroke:#3d2211;stroke-width:25;stroke-linecap:round;stroke-linejoin:round;stroke-miterlimit:4;stroke-dasharray:none;stroke-opacity:1"
         inkscape:connector-curvature="0" />
      <path
         id="path4167"
         d="m 476.92773,308.03711 c -32.5416,0 -7.47872,120.08371 -48.69335,128.7168 -25.145,38.26765 -68.2062,65.18249 -114.53516,65.63671 -46.29036,1.8389 -91.55728,-22.30545 -118.9336,-59.19531 -2.3e-4,-3.1e-4 -0.002,3.2e-4 -0.002,0 -9.87712,-1.95861 -13.65681,-13.42267 -16.15429,-28.03515 -4.59535,-10.76195 -7.7674,-22.15103 -9.23243,-33.94727 -0.95945,-6.28901 -1.4314,-12.62144 -1.45117,-18.94727 -5.53702,-12.84964 -14.86617,-22 -32.11328,-22 -9.3585,0 -16.11146,2.23792 -21.02344,6.01563 -4.91628,72.53046 32.30475,148.15229 97.00391,183.56836 63.07787,36.113 146.55513,35.30688 206.50195,-6.9043 46.4536,-31.33677 78.42919,-83.57535 85.31836,-138.83398 -2.46782,-37.97555 -3.24638,-76.07422 -26.68555,-76.07422 z"
         style="opacity:0.11199999;fill:#ffffff;fill-rule:evenodd;stroke:#ffffff;stroke-width:1.71800005;stroke-linecap:butt;stroke-linejoin:miter;stroke-miterlimit:4;stroke-dasharray:none;stroke-opacity:1"
         inkscape:connector-curvature="0" />
      <path
         id="path4232"
         d="m 312.11914,165.66016 c -1.63186,-0.0207 -3.26375,-0.0208 -4.89648,0.002 -90.52283,-0.16334 -176.07505,71.38413 -190.10157,161.26953 -0.55866,3.18362 -1.02189,6.38252 -1.41015,9.58984 17.29379,-8.76728 40.90666,-4.24669 52.99023,10.96875 5.90797,-54.97416 45.0603,-106.51842 99.11719,-121.58007 14.70539,-4.44942 30.09343,-6.57294 45.45117,-6.47071 67.9343,0.28723 128.83491,57.9856 137.05078,124.43555 1.52917,-13.92729 4.0548,-28.45379 13.63281,-39.03125 10.41159,-8.71195 26.86789,-4.53988 34.17774,6.16992 -8.8818,-33.15477 -26.64871,-63.90738 -50.78711,-88.26953 a 56.815364,80.422356 70.409221 0 1 -60.08789,-11.7832 56.815364,80.422356 70.409221 0 1 -17.09375,-35.4375 c -18.67785,-6.19789 -38.30953,-9.61292 -58.04297,-9.86328 z"
         style="opacity:0.08299997;fill:#ffffff;fill-rule:evenodd;stroke:#ffffff;stroke-width:1.71800005;stroke-linecap:butt;stroke-linejoin:miter;stroke-miterlimit:4;stroke-dasharray:none;stroke-opacity:1"
         inkscape:connector-curvature="0" />
      <rect
         style="opacity:1;fill:#ff0000;fill-opacity:1;stroke:none;stroke-width:1.71800005;stroke-linecap:round;stroke-linejoin:round;stroke-miterlimit:4;stroke-dasharray:none;stroke-opacity:1"
         id="rect4334"
         width="40.576729"
         height="8.378191"
         x="-315.42081"
         y="-154.32156"
         ry="4.1890955"
         transform="matrix(-0.70710678,-0.70710678,0.70710678,-0.70710678,0,0)" />
      <rect
         style="opacity:1;fill:#ff0000;fill-opacity:1;stroke:none;stroke-width:1.71800005;stroke-linecap:round;stroke-linejoin:round;stroke-miterlimit:4;stroke-dasharray:none;stroke-opacity:1"
         id="rect4336"
         width="40.576729"
         height="8.378191"
         x="-338.42081"
         y="-15.321573"
         ry="4.1890955"
         transform="matrix(-0.70710678,-0.70710678,0.70710678,-0.70710678,0,0)" />
      <rect
         style="opacity:1;fill:#ff0000;fill-opacity:1;stroke:none;stroke-width:1.71800005;stroke-linecap:round;stroke-linejoin:round;stroke-miterlimit:4;stroke-dasharray:none;stroke-opacity:1"
         id="rect4338"
         width="40.576729"
         height="8.378191"
         x="-348.42081"
         y="86.678421"
         ry="4.1890955"
         transform="matrix(-0.70710678,-0.70710678,0.70710678,-0.70710678,0,0)" />
      <rect
         style="opacity:1;fill:#ff0000;fill-opacity:1;stroke:none;stroke-width:1.71800005;stroke-linecap:round;stroke-linejoin:round;stroke-miterlimit:4;stroke-dasharray:none;stroke-opacity:1"
         id="rect4340"
         width="40.576729"
         height="8.378191"
         x="-583.42078"
         y="165.67842"
         ry="4.1890955"
         transform="matrix(-0.70710678,-0.70710678,0.70710678,-0.70710678,0,0)" />
      <rect
         style="opacity:1;fill:#ff0000;fill-opacity:1;stroke:none;stroke-width:1.71800005;stroke-linecap:round;stroke-linejoin:round;stroke-miterlimit:4;stroke-dasharray:none;stroke-opacity:1"
         id="rect4342"
         width="40.576729"
         height="8.378191"
         x="-497.42081"
         y="51.678425"
         ry="4.1890955"
         transform="matrix(-0.70710678,-0.70710678,0.70710678,-0.70710678,0,0)" />
      <rect
         style="opacity:1;fill:#ff0000;fill-opacity:1;stroke:none;stroke-width:1.71800005;stroke-linecap:round;stroke-linejoin:round;stroke-miterlimit:4;stroke-dasharray:none;stroke-opacity:1"
         id="rect4344"
         width="40.576729"
         height="8.378191"
         x="-701.42078"
         y="75.678421"
         ry="4.1890955"
         transform="matrix(-0.70710678,-0.70710678,0.70710678,-0.70710678,0,0)" />
      <rect
         inkscape:transform-center-y="12.727924"
         inkscape:transform-center-x="-16.970562"
         transform="matrix(-0.70710678,0.70710678,-0.70710678,-0.70710678,0,0)"
         ry="4.1890955"
         y="-428.3215"
         x="116.84411"
         height="8.378191"
         width="40.576729"
         id="rect4358"
         style="opacity:1;fill:#0000ff;fill-opacity:1;stroke:none;stroke-width:1.71800005;stroke-linecap:round;stroke-linejoin:round;stroke-miterlimit:4;stroke-dasharray:none;stroke-opacity:1" />
      <rect
         inkscape:transform-center-y="-8.3329685"
         inkscape:transform-center-x="-19.507989"
         transform="matrix(0.25881905,0.96592583,-0.96592583,0.25881905,0,0)"
         ry="4.1890955"
         y="-104.50214"
         x="306.3508"
         height="8.378191"
         width="40.576729"
         id="rect4360"
         style="opacity:1;fill:#ffffff;fill-opacity:1;stroke:none;stroke-width:1.71800005;stroke-linecap:round;stroke-linejoin:round;stroke-miterlimit:4;stroke-dasharray:none;stroke-opacity:1" />
      <rect
         inkscape:transform-center-y="-8.3329685"
         inkscape:transform-center-x="-19.507989"
         transform="matrix(0.25881905,0.96592583,-0.96592583,0.25881905,0,0)"
         ry="4.1890955"
         y="-366.34119"
         x="361.86935"
         height="8.378191"
         width="40.576729"
         id="rect4362"
         style="opacity:1;fill:#0000ff;fill-opacity:1;stroke:none;stroke-width:1.71800005;stroke-linecap:round;stroke-linejoin:round;stroke-miterlimit:4;stroke-dasharray:none;stroke-opacity:1" />
      <rect
         inkscape:transform-center-y="7.9019385"
         inkscape:transform-center-x="-19.686539"
         transform="matrix(-0.5,0.86602541,-0.86602541,-0.5,0,0)"
         ry="4.1890955"
         y="-626.54681"
         x="24.101734"
         height="8.378191"
         width="40.576729"
         id="rect4364"
         style="opacity:1;fill:#ffff00;fill-opacity:1;stroke:none;stroke-width:1.71800005;stroke-linecap:round;stroke-linejoin:round;stroke-miterlimit:4;stroke-dasharray:none;stroke-opacity:1" />
      <rect
         inkscape:transform-center-y="7.9019385"
         inkscape:transform-center-x="-19.686539"
         transform="matrix(-0.5,0.86602541,-0.86602541,-0.5,0,0)"
         ry="4.1890955"
         y="-363.83224"
         x="154.55115"
         height="8.378191"
         width="40.576729"
         id="rect4366"
         style="opacity:1;fill:#ff0000;fill-opacity:1;stroke:none;stroke-width:1.71800005;stroke-linecap:round;stroke-linejoin:round;stroke-miterlimit:4;stroke-dasharray:none;stroke-opacity:1" />
      <rect
         inkscape:transform-center-y="7.9019385"
         inkscape:transform-center-x="-19.686539"
         transform="matrix(-0.5,0.86602541,-0.86602541,-0.5,0,0)"
         ry="4.1890955"
         y="-400.70966"
         x="-33.305325"
         height="8.378191"
         width="40.576729"
         id="rect4368"
         style="opacity:1;fill:#ffff00;fill-opacity:1;stroke:none;stroke-width:1.71800005;stroke-linecap:round;stroke-linejoin:round;stroke-miterlimit:4;stroke-dasharray:none;stroke-opacity:1" />
      <rect
         style="opacity:1;fill:#ffffff;fill-opacity:1;stroke:none;stroke-width:1.71800005;stroke-linecap:round;stroke-linejoin:round;stroke-miterlimit:4;stroke-dasharray:none;stroke-opacity:1"
         id="rect4346"
         width="40.576729"
         height="8.378191"
         x="57.816223"
         y="-539.86731"
         ry="4.1890955"
         transform="matrix(-0.5,0.86602541,-0.86602541,-0.5,0,0)"
         inkscape:transform-center-x="-19.686539"
         inkscape:transform-center-y="7.9019385" />
      <rect
         style="opacity:1;fill:#ff0000;fill-opacity:1;stroke:none;stroke-width:1.71800005;stroke-linecap:round;stroke-linejoin:round;stroke-miterlimit:4;stroke-dasharray:none;stroke-opacity:1"
         id="rect4348"
         width="36.89278"
         height="7.6175375"
         x="424.86499"
         y="-124.04207"
         ry="3.8087687"
         transform="matrix(0.70710678,0.70710678,-0.70710678,0.70710678,0,0)"
         inkscape:transform-center-x="-11.572367"
         inkscape:transform-center-y="-15.429792" />
      <rect
         style="opacity:1;fill:#ffff00;fill-opacity:1;stroke:none;stroke-width:1.71800005;stroke-linecap:round;stroke-linejoin:round;stroke-miterlimit:4;stroke-dasharray:none;stroke-opacity:1"
         id="rect4350"
         width="40.576729"
         height="8.378191"
         x="50.844109"
         y="-256.3215"
         ry="4.1890955"
         transform="matrix(-0.70710678,0.70710678,-0.70710678,-0.70710678,0,0)"
         inkscape:transform-center-x="-16.970559"
         inkscape:transform-center-y="12.72792" />
      <rect
         style="opacity:1;fill:#ffffff;fill-opacity:1;stroke:none;stroke-width:1.71800005;stroke-linecap:round;stroke-linejoin:round;stroke-miterlimit:4;stroke-dasharray:none;stroke-opacity:1"
         id="rect4352"
         width="40.576729"
         height="8.378191"
         x="-61.155884"
         y="-272.3215"
         ry="4.1890955"
         transform="matrix(-0.70710678,0.70710678,-0.70710678,-0.70710678,0,0)"
         inkscape:transform-center-x="-16.970558"
         inkscape:transform-center-y="12.727923" />
      <rect
         style="opacity:1;fill:#0000ff;fill-opacity:1;stroke:none;stroke-width:1.71800005;stroke-linecap:round;stroke-linejoin:round;stroke-miterlimit:4;stroke-dasharray:none;stroke-opacity:1"
         id="rect4354"
         width="40.576729"
         height="8.378191"
         x="-46.155888"
         y="-387.3215"
         ry="4.1890955"
         transform="matrix(-0.70710678,0.70710678,-0.70710678,-0.70710678,0,0)"
         inkscape:transform-center-x="-16.970562"
         inkscape:transform-center-y="12.727925" />
      <rect
         style="opacity:1;fill:#ff0000;fill-opacity:1;stroke:none;stroke-width:1.71800005;stroke-linecap:round;stroke-linejoin:round;stroke-miterlimit:4;stroke-dasharray:none;stroke-opacity:1"
         id="rect4356"
         width="40.576729"
         height="8.378191"
         x="-44.155888"
         y="-581.32147"
         ry="4.1890955"
         transform="matrix(-0.70710678,0.70710678,-0.70710678,-0.70710678,0,0)"
         inkscape:transform-center-x="-16.970562"
         inkscape:transform-center-y="12.727922" />
      <rect
         inkscape:transform-center-y="12.727922"
         inkscape:transform-center-x="-16.970562"
         transform="matrix(-0.70710678,0.70710678,-0.70710678,-0.70710678,0,0)"
         ry="4.1890955"
         y="-581.32147"
         x="-44.155888"
         height="8.378191"
         width="40.576729"
         id="rect4286"
         style="opacity:1;fill:#ff0000;fill-opacity:1;stroke:none;stroke-width:1.71800005;stroke-linecap:round;stroke-linejoin:round;stroke-miterlimit:4;stroke-dasharray:none;stroke-opacity:1" />
    </g>
  </g>
</svg>
